<svg width="244" height="72" viewBox="0 0 244 72" fill="none" xmlns="http://www.w3.org/2000/svg">
<path d="M51.295 39.2004C51.683 40.5098 51.8954 41.8556 51.8954 43.265C51.8954 47.0931 50.6208 50.012 48.0808 52.1306C45.5224 54.222 41.9664 55.295 37.3945 55.295H33.3306L31.2432 70.3075L31.1323 70.7439C38.8261 71.726 46.8432 70.2529 53.9458 66.0338C61.1778 61.751 66.3224 55.3132 69.0009 48.057C69.4165 46.9295 69.786 45.7746 70.0816 44.6017C70.4325 43.3195 70.6819 42.0556 70.8482 40.7371L50.63 37.7546C50.8979 38.2184 51.1195 38.7003 51.2858 39.2004" fill="url(#paint0_linear_107_190)"/>
<path d="M71.1807 36.4818L70.7374 36.509L49.6972 36.3999C49.4755 36.1362 49.2354 35.8816 48.986 35.627C48.5704 35.1996 48.1178 34.845 47.5452 34.4813C47.7576 34.2722 47.9331 34.0812 48.0993 33.8721L70.3494 30.8532L70.839 30.8259C71.1068 32.7082 71.2269 34.5995 71.1899 36.4727" fill="#FF9242"/>
<path d="M69.3244 24.7971L68.8903 24.9607L49.5496 31.4986C49.8821 30.7257 50.113 29.9255 50.2053 29.1344L67.4771 21.4418L67.9112 21.2781C68.4562 22.4329 68.9364 23.6059 69.3244 24.8061" fill="#FF9242"/>
<path d="M63.8841 14.7314L63.5239 15.0042L50.0205 25.2338C49.9097 24.6155 49.7434 24.0245 49.5217 23.4698L61.6951 12.8401L62.0553 12.54C62.7111 13.2311 63.3114 13.9676 63.8841 14.7314Z" fill="#FF9242"/>
<path d="M55.5529 6.96597L55.2759 7.36606L46.8339 19.6598C46.5107 19.3688 46.1597 19.1142 45.781 18.8596L53.5117 6.23853L53.7796 5.86572C54.3707 6.21126 54.9803 6.58407 55.5529 6.96597Z" fill="#FF9242"/>
<path d="M45.4115 2.32855L45.2822 2.7832L41.1166 17.041C40.7287 16.9591 40.3223 16.9046 39.8975 16.8591L43.4257 2.30127L43.5642 1.85571C44.2108 1.99211 44.8204 2.14669 45.4115 2.31945" fill="#FF9242"/>
<path d="M20.8339 35.6089V38.4277L0.855904 41.1465L0.384856 41.1738C0.0985326 39.2915 -0.0307747 37.4002 0.00617022 35.527L0.44951 35.4998L20.8247 35.6089H20.8339Z" fill="#FF9242"/>
<path d="M17.2411 5.96549C10.0092 10.2392 4.88306 16.6679 2.17684 23.9241C1.84433 24.8334 1.5303 25.77 1.28092 26.7066C0.865292 28.1887 0.55126 29.7163 0.32959 31.2621L0.809874 31.3713L20.871 34.3174V33.6536H20.834V16.7134H37.4039C37.5978 16.7134 37.7825 16.7134 37.9673 16.7225L40.1008 1.70998L40.184 1.27352C38.6323 1.07347 37.0621 0.964355 35.492 0.964355C29.2575 0.964355 22.9491 2.57381 17.2319 5.96549" fill="url(#paint1_linear_107_190)"/>
<path d="M20.8338 40.7918V42.9559L3.71907 50.5758L3.28497 50.7395C2.74003 49.5847 2.25975 48.4117 1.87183 47.2114L2.30593 47.0478L20.8338 40.7827V40.7918Z" fill="#FF9242"/>
<path d="M20.8339 47.0384V49.2935L9.51028 59.1594L9.15006 59.4595C8.50353 58.7684 7.89394 58.0319 7.32129 57.268L7.6815 56.9771L20.8431 47.0203L20.8339 47.0384Z" fill="#FF9242"/>
<path d="M24.1035 55.2947L17.6843 65.7698L17.4165 66.1426C16.8161 65.7971 16.225 65.4243 15.6523 65.0423L15.9202 64.6423L22.3394 55.2947H24.1035Z" fill="#FF9242"/>
<path d="M31.234 55.2947L27.7519 69.6889L27.6226 70.1435C27.0038 70.0071 26.3757 69.8525 25.7661 69.6798L25.9047 69.2251L29.9871 55.2947H31.234Z" fill="#FF9242"/>
<path d="M82.9292 35.636V13.1946H92.3225C93.5693 13.1946 94.65 13.431 95.5829 13.922C96.5065 14.4039 97.2361 15.0677 97.7534 15.9134C98.2706 16.759 98.5384 17.732 98.5384 18.8322C98.5384 19.9961 98.2337 21.0327 97.6241 21.9329C97.0145 22.8331 96.1555 23.4878 95.0564 23.8879V23.3787C95.9523 23.6606 96.7374 24.088 97.4024 24.6608C98.0674 25.2337 98.5754 25.9157 98.9356 26.6976C99.2866 27.4796 99.4713 28.3253 99.4713 29.2255C99.4713 31.1714 98.8432 32.7263 97.5871 33.8993C96.331 35.0632 94.5853 35.6451 92.3409 35.6451H82.9477L82.9292 35.636ZM84.915 22.8877H92.1377C93.4585 22.8877 94.5299 22.5149 95.3335 21.7783C96.137 21.0327 96.5434 20.0598 96.5434 18.8595C96.5434 17.6592 96.1463 16.7136 95.3612 16.0225C94.5761 15.3405 93.4955 14.995 92.1285 14.995H84.9058V22.8877H84.915ZM84.915 33.8265H92.1931C93.8003 33.8265 95.0841 33.4174 96.0354 32.5899C96.9868 31.7715 97.4578 30.6531 97.4578 29.2437C97.4578 27.8343 96.996 26.7522 96.0631 25.9157C95.1303 25.0791 93.8926 24.6608 92.3409 24.6608H84.9058V33.8174L84.915 33.8265Z" fill="black"/>
<path d="M104.172 35.6451V13.1946H118.553V15.0041H106.158V23.4696H117.944V25.2791H106.158V33.8356H118.553V35.6451H104.172Z" fill="black"/>
<path d="M120.391 35.6453L128.565 13.2039H132.112L140.286 35.6453H137.072L135.206 30.3714H125.471L123.606 35.6453H120.391ZM126.423 27.6617H134.255L129.905 15.3407H130.764L126.423 27.6617Z" fill="black"/>
<path d="M143.159 35.6451V13.1946H145.911L154.455 25.1518H153.041L161.52 13.1946H164.273V35.6451H161.243V16.9318L162.315 17.2591L153.836 29.0164H153.596L145.209 17.2591L146.16 16.9318V35.6451H143.159Z" fill="black"/>
<path d="M168.189 35.6453V32.5446L174.368 26.1886C175.596 24.9247 176.538 23.9153 177.203 23.1606C177.868 22.4059 178.33 21.7603 178.598 21.2147C178.866 20.6691 178.995 20.1236 178.995 19.5598C178.995 18.6141 178.69 17.8776 178.09 17.332C177.49 16.7864 176.714 16.5227 175.781 16.5227C174.848 16.5227 173.952 16.7955 173.241 17.3502C172.53 17.9049 172.003 18.7142 171.68 19.778L168.041 18.6596C168.29 17.4775 168.789 16.45 169.537 15.568C170.295 14.6951 171.218 14.0222 172.308 13.5493C173.398 13.0765 174.553 12.8401 175.781 12.8401C177.25 12.8401 178.543 13.1038 179.651 13.6221C180.759 14.1404 181.628 14.8769 182.256 15.8226C182.874 16.7683 183.188 17.8685 183.188 19.1324C183.188 19.9326 183.031 20.7328 182.727 21.5148C182.422 22.2968 181.96 23.097 181.35 23.9062C180.741 24.7246 179.947 25.6248 178.958 26.6341L173.601 32.1808H183.484V35.6453H168.18H168.189Z" fill="black"/>
<path d="M195.888 35.9999C194.069 35.9999 192.48 35.518 191.113 34.5541C189.746 33.5903 188.675 32.2354 187.918 30.4896C187.151 28.7437 186.772 26.716 186.772 24.4064C186.772 22.0967 187.151 20.0508 187.908 18.3232C188.666 16.5955 189.728 15.2497 191.095 14.2859C192.462 13.322 194.05 12.8401 195.87 12.8401C197.689 12.8401 199.333 13.322 200.691 14.2859C202.049 15.2497 203.111 16.5955 203.887 18.3413C204.663 20.0781 205.051 22.1058 205.051 24.4154C205.051 26.7251 204.672 28.7528 203.905 30.4896C203.139 32.2263 202.077 33.5812 200.71 34.5541C199.343 35.5271 197.745 36.0181 195.907 36.0181M195.935 32.2809C196.978 32.2809 197.865 31.9626 198.595 31.3352C199.324 30.6987 199.897 29.7985 200.294 28.6255C200.691 27.4525 200.894 26.0522 200.894 24.4245C200.894 22.7969 200.691 21.3966 200.294 20.2236C199.897 19.0506 199.324 18.1504 198.576 17.5321C197.828 16.9137 196.932 16.5955 195.87 16.5955C194.808 16.5955 193.976 16.9046 193.238 17.5321C192.508 18.1595 191.935 19.0506 191.538 20.2236C191.141 21.3966 190.938 22.7969 190.938 24.4245C190.938 26.0522 191.141 27.4252 191.538 28.5982C191.935 29.7712 192.508 30.6805 193.256 31.3261C194.004 31.9717 194.891 32.29 195.935 32.29" fill="black"/>
<path d="M208.006 35.6451V32.0261L214.13 25.8247C215.331 24.5971 216.245 23.6333 216.873 22.9149C217.492 22.2057 217.926 21.6055 218.157 21.1236C218.388 20.6417 218.508 20.1688 218.508 19.7051C218.508 18.8867 218.24 18.232 217.695 17.7592C217.15 17.2864 216.476 17.05 215.663 17.05C214.85 17.05 214.084 17.2864 213.428 17.7592C212.772 18.232 212.301 18.9504 211.987 19.9142L207.858 18.5867C208.108 17.4228 208.616 16.4044 209.392 15.5405C210.167 14.6767 211.11 14.0129 212.209 13.5401C213.308 13.0672 214.462 12.8308 215.663 12.8308C217.169 12.8308 218.499 13.0945 219.644 13.6128C220.789 14.1311 221.676 14.8676 222.304 15.8133C222.932 16.759 223.255 17.8592 223.255 19.1231C223.255 19.9233 223.107 20.7144 222.83 21.4873C222.544 22.2602 222.11 23.0422 221.528 23.8333C220.946 24.6244 220.198 25.4882 219.274 26.4066L214.037 31.7078H223.468V35.6269H208.015L208.006 35.6451Z" fill="black"/>
<path d="M235.733 35.6451V30.8259H225.638V26.9068L235.429 13.1946H240.481V26.9068H244V30.8259H240.481V35.6451H235.733ZM229.093 28.5981L228.206 26.9159H235.733V16.8227L236.925 17.1864L229.093 28.6072V28.5981Z" fill="black"/>
<path d="M81.8577 54.1037V49.1753H83.9728C84.296 49.1753 84.5824 49.2298 84.8225 49.3481C85.0626 49.4572 85.2474 49.6208 85.3674 49.83C85.4967 50.0391 85.5614 50.2846 85.5614 50.5756C85.5614 50.8029 85.4967 51.0212 85.3767 51.2121C85.2566 51.4122 85.0534 51.5667 84.7856 51.694V51.2758C85.0349 51.3667 85.2289 51.4849 85.3674 51.6213C85.5152 51.7577 85.6076 51.9123 85.6722 52.076C85.7369 52.2396 85.7554 52.4215 85.7554 52.6033C85.7554 53.0762 85.5983 53.449 85.2843 53.7127C84.9703 53.9764 84.5269 54.1128 83.9728 54.1128H81.8577V54.1037ZM82.7813 51.0848H84.0282C84.2129 51.0848 84.3699 51.0303 84.4808 50.9211C84.5916 50.812 84.647 50.6756 84.647 50.5029C84.647 50.3301 84.5916 50.1937 84.4808 50.0937C84.3699 49.9937 84.2221 49.9391 84.0282 49.9391H82.7813V51.0848ZM82.7813 53.3126H84.0744C84.3145 53.3126 84.4992 53.2489 84.647 53.1216C84.7856 52.9943 84.8594 52.8216 84.8594 52.6033C84.8594 52.3851 84.7856 52.2123 84.647 52.076C84.5085 51.9396 84.3145 51.8759 84.0744 51.8759H82.7813V53.3126Z" fill="black"/>
<path d="M92.812 54.1037L94.5391 49.1753H95.7214L97.4486 54.1037H96.451L96.0908 53.0489H94.1512L93.791 54.1037H92.8027H92.812ZM94.4283 52.2487H95.8322L95.001 49.8027H95.2596L94.4283 52.2487Z" fill="black"/>
<path d="M104.727 54.1037V49.1753H105.447L108.2 52.8307L107.839 52.9034V49.1753H108.754V54.1037H108.024L105.318 50.421L105.65 50.3483V54.1037H104.727Z" fill="black"/>
<path d="M116.438 54.1037V49.1753H118.082C118.609 49.1753 119.071 49.2844 119.468 49.4935C119.865 49.7027 120.16 49.9937 120.382 50.3665C120.595 50.7393 120.705 51.1667 120.705 51.6486C120.705 52.1305 120.595 52.5579 120.382 52.9307C120.17 53.3035 119.865 53.5945 119.468 53.8036C119.071 54.0128 118.618 54.1219 118.082 54.1219H116.438V54.1037ZM117.362 53.3126H118.101C118.442 53.3126 118.738 53.2399 118.987 53.1035C119.237 52.9671 119.431 52.767 119.569 52.5215C119.708 52.276 119.782 51.9759 119.782 51.6395C119.782 51.303 119.708 51.003 119.569 50.7575C119.431 50.512 119.237 50.3119 118.987 50.1755C118.738 50.0391 118.442 49.9664 118.101 49.9664H117.362V53.3126Z" fill="black"/>
<path d="M130.071 54.1855C129.683 54.1855 129.341 54.1037 129.046 53.9491C128.75 53.7945 128.51 53.5672 128.344 53.2944C128.178 53.0216 128.085 52.7034 128.085 52.3487V49.1753H129V52.3033C129 52.5033 129.046 52.6852 129.138 52.8489C129.23 53.0125 129.36 53.1398 129.517 53.2308C129.674 53.3217 129.859 53.3672 130.071 53.3672C130.283 53.3672 130.468 53.3217 130.625 53.2308C130.782 53.1398 130.911 53.0125 131.004 52.8489C131.096 52.6852 131.142 52.5033 131.142 52.3033V49.1753H132.057V52.3487C132.057 52.7034 131.974 53.0216 131.798 53.2944C131.623 53.5672 131.392 53.7945 131.096 53.9491C130.801 54.1037 130.459 54.1855 130.071 54.1855Z" fill="black"/>
<path d="M139.686 54.1037V49.1753H140.406L143.159 52.8307L142.798 52.9034V49.1753H143.713V54.1037H142.983L140.277 50.421L140.609 50.3483V54.1037H139.686Z" fill="black"/>
<path d="M153.78 54.1856C153.42 54.1856 153.088 54.1219 152.783 53.9946C152.478 53.8673 152.21 53.6855 151.979 53.4581C151.748 53.2308 151.573 52.958 151.443 52.6489C151.314 52.3397 151.25 52.0033 151.25 51.6395C151.25 51.2758 151.314 50.9303 151.434 50.6211C151.564 50.312 151.739 50.0392 151.961 49.8119C152.182 49.5845 152.45 49.4118 152.755 49.2845C153.06 49.1572 153.392 49.0935 153.753 49.0935C154.113 49.0935 154.436 49.1572 154.713 49.2754C154.999 49.3936 155.24 49.5482 155.434 49.7482C155.627 49.9482 155.775 50.1574 155.858 50.3938L155.046 50.7757C154.953 50.5211 154.787 50.3211 154.565 50.1574C154.334 49.9937 154.067 49.9119 153.753 49.9119C153.439 49.9119 153.161 49.9846 152.921 50.1301C152.681 50.2756 152.496 50.4756 152.367 50.7302C152.238 50.9848 152.173 51.2849 152.173 51.6304C152.173 51.976 152.238 52.276 152.376 52.5306C152.515 52.7853 152.7 52.9944 152.949 53.1399C153.198 53.2854 153.466 53.3581 153.78 53.3581C154.03 53.3581 154.261 53.3126 154.482 53.2126C154.695 53.1126 154.87 52.9762 154.999 52.7853C155.129 52.6034 155.193 52.3852 155.193 52.1306V51.7487L155.609 52.1033H153.753V51.3395H156.108V51.8396C156.108 52.2215 156.043 52.5579 155.914 52.8489C155.785 53.1399 155.609 53.3854 155.387 53.5854C155.166 53.7855 154.916 53.931 154.639 54.031C154.362 54.131 154.076 54.1765 153.78 54.1765V54.1856Z" fill="black"/>
<path d="M170.997 54.1037V49.1753H174.331V49.9664H171.92V51.2303H174.202V52.0305H171.92V53.3035H174.331V54.0946H170.997V54.1037Z" fill="black"/>
<path d="M181.72 54.1037V49.1753H182.644V53.3126H184.786V54.1037H181.72Z" fill="black"/>
<path d="M192.102 54.1037V49.1753H195.436V49.9664H193.025V51.2303H195.307V52.0305H193.025V53.3035H195.436V54.0946H192.102V54.1037Z" fill="black"/>
<path d="M204.164 54.1037L202.418 49.1753H203.416L204.792 53.258H204.598L205.965 49.1753H206.963L205.217 54.1037H204.164Z" fill="black"/>
<path d="M213.529 54.1037L215.257 49.1753H216.439L218.166 54.1037H217.169L216.808 53.0489H214.869L214.509 54.1037H213.52H213.529ZM215.146 52.2487H216.55L215.718 49.8027H215.977L215.146 52.2487Z" fill="black"/>
<path d="M225.999 54.1037V49.9664H224.696V49.1753H228.197V49.9664H226.922V54.1037H225.999Z" fill="black"/>
<path d="M235.475 54.1037V49.1753H238.809V49.9664H236.399V51.2303H238.68V52.0305H236.399V53.3035H238.809V54.0946H235.475V54.1037Z" fill="black"/>
<path d="M81.8577 62.0507V57.1223H82.7351L84.6101 59.632H84.1944L86.0324 57.1223H86.9099V62.0507H85.9863V58.1407L86.3465 58.2226L84.4438 60.7231H84.333L82.4765 58.2226L82.7813 58.1407V62.0507H81.8577Z" fill="black"/>
<path d="M94.5852 62.051V57.1226H97.9195V57.9136H95.5088V59.1776H97.7902V59.9778H95.5088V61.2508H97.9195V62.0419H94.5852V62.051Z" fill="black"/>
<path d="M105.309 62.051V57.1226H108.643V57.9136H106.232V59.1776H108.514V59.9778H106.232V61.2508H108.643V62.0419H105.309V62.051Z" fill="black"/>
<path d="M116.928 62.051V57.9136H115.625V57.1226H119.126V57.9136H117.851V62.051H116.928Z" fill="black"/>
<path d="M128.334 62.1238C127.947 62.1238 127.605 62.0419 127.309 61.8873C127.014 61.7328 126.774 61.5054 126.607 61.2326C126.441 60.9599 126.349 60.6416 126.349 60.287V57.1135H127.263V60.2415C127.263 60.4416 127.309 60.6234 127.402 60.7871C127.494 60.9508 127.623 61.0781 127.78 61.169C127.937 61.2599 128.122 61.3054 128.334 61.3054C128.547 61.3054 128.732 61.2599 128.889 61.169C129.046 61.0781 129.175 60.9508 129.267 60.7871C129.36 60.6234 129.406 60.4416 129.406 60.2415V57.1135H130.32V60.287C130.32 60.6416 130.237 60.9599 130.062 61.2326C129.886 61.5054 129.655 61.7328 129.36 61.8873C129.064 62.0419 128.722 62.1238 128.334 62.1238Z" fill="black"/>
<path d="M137.959 62.051V57.1226H139.834C140.175 57.1226 140.48 57.1862 140.739 57.3044C140.997 57.4226 141.21 57.6045 141.358 57.8318C141.505 58.0591 141.579 58.3501 141.579 58.6866C141.579 59.023 141.505 59.2958 141.358 59.5231C141.21 59.7504 141.007 59.9323 140.739 60.0505C140.471 60.1687 140.175 60.2324 139.834 60.2324H138.882V62.051H137.959ZM138.882 59.4322H139.852C140.009 59.4322 140.157 59.3958 140.277 59.3322C140.397 59.2685 140.489 59.1776 140.563 59.0685C140.637 58.9593 140.665 58.8229 140.665 58.6684C140.665 58.5138 140.628 58.3774 140.563 58.2683C140.499 58.1592 140.397 58.0682 140.277 58.0046C140.157 57.9409 140.018 57.9046 139.852 57.9046H138.882V59.4231V59.4322Z" fill="black"/>
<path d="M191.27 62.051V57.1226H194.605V57.9136H192.194V59.1776H194.475V59.9778H192.194V61.2508H194.605V62.0419H191.27V62.051Z" fill="black"/>
<path d="M203.333 62.051L201.587 57.1226H202.585L203.961 61.2053H203.767L205.134 57.1226H206.131L204.386 62.051H203.333Z" fill="black"/>
<path d="M213.41 62.051V57.1226H216.744V57.9136H214.333V59.1776H216.615V59.9778H214.333V61.2508H216.744V62.0419H213.41V62.051Z" fill="black"/>
<path d="M224.133 62.051V57.1226H224.853L227.606 60.7779L227.246 60.8507V57.1226H228.16V62.051H227.43L224.724 58.3683L225.057 58.2956V62.051H224.133Z" fill="black"/>
<path d="M236.731 62.051V57.9136H235.429V57.1226H238.929V57.9136H237.655V62.051H236.731Z" fill="black"/>
<path d="M186.283 59.6594H148.608V60.3596H186.283V59.6594Z" fill="black"/>
<defs>
<linearGradient id="paint0_linear_107_190" x1="31.1416" y1="54.4039" x2="70.8574" y2="54.4039" gradientUnits="userSpaceOnUse">
<stop/>
<stop offset="1" stop-color="#FF9242"/>
</linearGradient>
<linearGradient id="paint1_linear_107_190" x1="0.338826" y1="17.6409" x2="40.184" y2="17.6409" gradientUnits="userSpaceOnUse">
<stop stop-color="#FF9242"/>
<stop offset="1"/>
</linearGradient>
</defs>
</svg>
