<svg width="22" height="17" viewBox="0 0 22 17" fill="none" xmlns="http://www.w3.org/2000/svg">
<path fill-rule="evenodd" clip-rule="evenodd" d="M15.8949 7.3994L0.887587 7.42613L0.820086 9.13381L16.34 9.10616C15.9789 9.38887 15.636 9.70108 15.3143 10.0405C14.4865 10.914 13.8162 11.9505 13.3418 13.0908C12.8674 14.2311 12.5981 15.4528 12.5494 16.6862L14.2581 16.6832C14.2989 15.6526 14.5239 14.635 14.9172 13.6898C15.3104 12.7446 15.8619 11.8954 16.5333 11.1869C17.2044 10.4788 17.9808 9.9263 18.8137 9.55227C19.2774 9.34403 19.7551 9.19269 20.2383 9.09921L21.3254 9.09727L21.3297 8.98696C21.3522 8.98667 21.3746 8.98651 21.397 8.98647L21.4037 8.81704L21.4183 8.81647L21.419 8.42915L21.4645 7.2788L21.4211 7.279L21.4214 7.1077C20.3908 7.14843 19.3739 7.00383 18.4299 6.68524C17.486 6.36668 16.6386 5.88222 15.9325 5.26675C15.2266 4.65157 14.6768 3.91876 14.3057 3.11527C13.9348 2.31235 13.7475 1.45009 13.749 0.576356L12.0413 0.643858C12.0394 1.76585 12.2803 2.86726 12.7505 3.88519C13.2206 4.90312 13.9108 5.81764 14.7815 6.57655C15.128 6.87853 15.5004 7.15352 15.8949 7.3994Z" fill="#174EDA"/>
</svg>
