<svg width="213" height="32" viewBox="0 0 213 32" fill="none" xmlns="http://www.w3.org/2000/svg">
<path d="M14.4096 16.9134C14.5185 17.2871 14.5782 17.6712 14.5782 18.0735C14.5782 19.1661 14.2202 19.9992 13.5067 20.6039C12.788 21.2009 11.789 21.5071 10.5047 21.5071H9.36312L8.77674 25.792L8.74561 25.9166C10.9069 26.1969 13.159 25.7764 15.1542 24.5722C17.1858 23.3498 18.631 21.5123 19.3834 19.4412C19.5001 19.1194 19.6039 18.7898 19.6869 18.455C19.7855 18.0891 19.8556 17.7283 19.9023 17.352L14.2228 16.5007C14.298 16.6331 14.3603 16.7706 14.407 16.9134" fill="#344054"/>
<path d="M19.9955 16.1375L19.8709 16.1453L13.9605 16.1141C13.8982 16.0389 13.8308 15.9662 13.7607 15.8935C13.644 15.7715 13.5168 15.6703 13.356 15.5665C13.4156 15.5068 13.4649 15.4523 13.5116 15.3926L19.762 14.531L19.8995 14.5232C19.9747 15.0604 20.0085 15.6003 19.9981 16.1349" fill="#344054"/>
<path d="M19.4739 12.8022L19.352 12.849L13.9189 14.715C14.0124 14.4944 14.0772 14.266 14.1032 14.0402L18.955 11.8446L19.077 11.7979C19.23 12.1275 19.365 12.4623 19.4739 12.8048" fill="#344054"/>
<path d="M17.9459 9.92931L17.8448 10.0072L14.0515 12.9269C14.0203 12.7504 13.9736 12.5817 13.9114 12.4234L17.331 9.38948L17.4322 9.30383C17.6164 9.50108 17.7851 9.7113 17.9459 9.92931Z" fill="#344054"/>
<path d="M15.6057 7.71296L15.5278 7.82716L13.1564 11.336C13.0656 11.253 12.967 11.1803 12.8606 11.1077L15.0323 7.50533L15.1075 7.39893C15.2736 7.49755 15.4448 7.60396 15.6057 7.71296Z" fill="#344054"/>
<path d="M12.7567 6.38935L12.7204 6.51912L11.5502 10.5886C11.4413 10.5652 11.3271 10.5497 11.2078 10.5367L12.1989 6.38157L12.2378 6.25439C12.4194 6.29332 12.5907 6.33745 12.7567 6.38676" fill="#344054"/>
<path d="M5.85251 15.8883V16.6929L0.240435 17.4689L0.108111 17.4767C0.0276791 16.9394 -0.00864502 16.3996 0.0017333 15.865L0.126273 15.8572L5.84992 15.8883H5.85251Z" fill="#344054"/>
<path d="M4.8432 7.42743C2.81165 8.64724 1.37166 10.4821 0.611445 12.5532C0.51804 12.8127 0.429825 13.0801 0.359771 13.3474C0.243015 13.7704 0.154799 14.2064 0.0925293 14.6476L0.227447 14.6788L5.86287 15.5197V15.3302H5.8525V10.4951H10.5072C10.5617 10.4951 10.6135 10.4951 10.6654 10.4977L11.2648 6.21282L11.2881 6.08824C10.8523 6.03114 10.4112 6 9.97009 6C8.21875 6 6.44665 6.45937 4.84061 7.42743" fill="#344054"/>
<path d="M5.85255 17.3676V17.9853L1.04479 20.1602L0.92285 20.2069C0.769769 19.8773 0.634851 19.5425 0.525879 19.1999L0.647824 19.1532L5.85255 17.365V17.3676Z" fill="#344054"/>
<path d="M5.85251 19.1505V19.7941L2.67156 22.61L2.57037 22.6957C2.38875 22.4984 2.2175 22.2882 2.05664 22.0702L2.15783 21.9872L5.8551 19.1453L5.85251 19.1505Z" fill="#344054"/>
<path d="M6.77101 21.5072L4.96778 24.497L4.89254 24.6034C4.72389 24.5048 4.55784 24.3984 4.39697 24.2894L4.47222 24.1752L6.27545 21.5072H6.77101Z" fill="#344054"/>
<path d="M8.77403 21.5072L7.79587 25.6156L7.75955 25.7454C7.58571 25.7064 7.40928 25.6623 7.23804 25.613L7.27696 25.4832L8.42376 21.5072H8.77403Z" fill="#344054"/>
<path d="M40.26 23.2C39.0867 23.2 38.0533 22.9867 37.16 22.56C36.2667 22.12 35.52 21.54 34.92 20.82C34.32 20.0867 33.8667 19.2667 33.56 18.36C33.2533 17.4533 33.1 16.5267 33.1 15.58C33.1 14.6333 33.2533 13.7133 33.56 12.82C33.8667 11.9133 34.32 11.1 34.92 10.38C35.52 9.66 36.2667 9.08667 37.16 8.66C38.0533 8.22 39.0867 8 40.26 8C41.4333 8 42.4667 8.22 43.36 8.66C44.2533 9.08667 45 9.66 45.6 10.38C46.2 11.1 46.6533 11.9133 46.96 12.82C47.2667 13.7133 47.42 14.6333 47.42 15.58C47.42 16.5267 47.2667 17.4533 46.96 18.36C46.6533 19.2667 46.2 20.0867 45.6 20.82C45 21.54 44.2533 22.12 43.36 22.56C42.4667 22.9867 41.4333 23.2 40.26 23.2ZM40.26 21.38C41.1 21.38 41.84 21.22 42.48 20.9C43.12 20.58 43.6533 20.1467 44.08 19.6C44.52 19.0533 44.8533 18.4333 45.08 17.74C45.3067 17.0467 45.42 16.3267 45.42 15.58C45.42 14.8467 45.3067 14.14 45.08 13.46C44.8533 12.7667 44.52 12.1467 44.08 11.6C43.6533 11.0533 43.12 10.62 42.48 10.3C41.84 9.98 41.1 9.82 40.26 9.82C39.42 9.82 38.68 9.98 38.04 10.3C37.4 10.62 36.86 11.0533 36.42 11.6C35.9933 12.1467 35.6667 12.7667 35.44 13.46C35.2133 14.14 35.1 14.8467 35.1 15.58C35.1 16.3267 35.2133 17.0467 35.44 17.74C35.6667 18.4333 35.9933 19.0533 36.42 19.6C36.86 20.1467 37.4 20.58 38.04 20.9C38.68 21.22 39.42 21.38 40.26 21.38ZM56.7634 23.2C55.6034 23.2 54.6034 22.98 53.7634 22.54C52.9234 22.0867 52.2701 21.4533 51.8034 20.64C51.3501 19.8133 51.1234 18.84 51.1234 17.72V8.2H53.0834V17.72C53.0834 18.7467 53.3834 19.6067 53.9834 20.3C54.5968 20.9933 55.5234 21.34 56.7634 21.34C58.0168 21.34 58.9434 20.9933 59.5434 20.3C60.1568 19.6067 60.4634 18.7467 60.4634 17.72V8.2H62.4234V17.72C62.4234 18.84 62.1901 19.8133 61.7234 20.64C61.2701 21.4533 60.6234 22.0867 59.7834 22.54C58.9434 22.98 57.9368 23.2 56.7634 23.2ZM66.6156 23V8.2H71.8556C72.909 8.2 73.7823 8.40667 74.4756 8.82C75.169 9.23333 75.689 9.76667 76.0356 10.42C76.3823 11.0733 76.5556 11.76 76.5556 12.48C76.5556 13.08 76.4356 13.66 76.1956 14.22C75.9556 14.78 75.5956 15.2733 75.1156 15.7C74.649 16.1133 74.0556 16.4133 73.3356 16.6L77.0756 23H74.8556L71.2756 16.78H68.5756V23H66.6156ZM71.8356 9.92H68.5756V15.1H71.8356C72.449 15.1 72.9556 14.9733 73.3556 14.72C73.7556 14.4667 74.0556 14.1467 74.2556 13.76C74.4556 13.36 74.5556 12.9467 74.5556 12.52C74.5556 12.08 74.4556 11.6667 74.2556 11.28C74.0556 10.88 73.7556 10.5533 73.3556 10.3C72.9556 10.0467 72.449 9.92 71.8356 9.92ZM86.5844 23V8.2H91.8644C92.9977 8.2 93.9377 8.43333 94.6844 8.9C95.4444 9.36667 96.011 9.97333 96.3844 10.72C96.771 11.4533 96.9644 12.22 96.9644 13.02C96.9644 13.8333 96.771 14.6133 96.3844 15.36C96.011 16.0933 95.4444 16.7 94.6844 17.18C93.9377 17.6467 92.9977 17.88 91.8644 17.88H88.5444V23H86.5844ZM91.8644 9.92H88.5444V16.16H91.8644C92.571 16.16 93.1577 16.0067 93.6244 15.7C94.091 15.3933 94.4377 15.0067 94.6644 14.54C94.9044 14.06 95.0244 13.56 95.0244 13.04C95.0244 12.52 94.9044 12.02 94.6644 11.54C94.4377 11.06 94.091 10.6733 93.6244 10.38C93.1577 10.0733 92.571 9.92 91.8644 9.92ZM100.455 23V8.2H105.695C106.749 8.2 107.622 8.40667 108.315 8.82C109.009 9.23333 109.529 9.76667 109.875 10.42C110.222 11.0733 110.395 11.76 110.395 12.48C110.395 13.08 110.275 13.66 110.035 14.22C109.795 14.78 109.435 15.2733 108.955 15.7C108.489 16.1133 107.895 16.4133 107.175 16.6L110.915 23H108.695L105.115 16.78H102.415V23H100.455ZM105.675 9.92H102.415V15.1H105.675C106.289 15.1 106.795 14.9733 107.195 14.72C107.595 14.4667 107.895 14.1467 108.095 13.76C108.295 13.36 108.395 12.9467 108.395 12.52C108.395 12.08 108.295 11.6667 108.095 11.28C107.895 10.88 107.595 10.5533 107.195 10.3C106.795 10.0467 106.289 9.92 105.675 9.92ZM114.115 23L119.335 8.2H121.795L127.035 23H124.955L123.715 19.46H117.435L116.195 23H114.115ZM118.035 17.7H123.115L120.575 10.44L118.035 17.7ZM131.301 17.54V15.94H138.741V17.54H131.301ZM143.709 23V8.2H153.109V9.92H145.669V14.6H152.189V16.32H145.669V21.28H153.209V23H143.709ZM161.332 23L156.112 8.2H158.192L162.572 20.76L166.952 8.2H169.032L163.792 23H161.332ZM172.233 23V8.2H181.633V9.92H174.193V14.6H180.713V16.32H174.193V21.28H181.733V23H172.233ZM185.635 23V8.2H187.395L195.115 19.46V8.2H197.075V23H195.315L187.595 11.76V23H185.635ZM205.204 23V9.92H200.584V8.2H211.784V9.92H207.164V23H205.204Z" fill="#344054"/>
</svg>
