<svg width="16" height="16" viewBox="0 0 16 16" fill="none" xmlns="http://www.w3.org/2000/svg">
<path d="M11.5278 8.73076C11.6149 9.02974 11.6627 9.33703 11.6627 9.65885C11.6627 10.533 11.3762 11.1994 10.8054 11.6832C10.2305 12.1607 9.43134 12.4057 8.40388 12.4057H7.49059L7.02149 15.8337L6.99658 15.9333C8.72561 16.1576 10.5273 15.8212 12.1235 14.8578C13.7487 13.8799 14.9049 12.4099 15.5068 10.753C15.6002 10.4956 15.6832 10.2319 15.7497 9.96406C15.8285 9.67131 15.8846 9.38271 15.9219 9.08165L11.3783 8.40063C11.4385 8.50652 11.4883 8.61657 11.5257 8.73076" fill="#344054"/>
<path d="M15.9962 8.11004L15.8966 8.11627L11.1682 8.09135C11.1184 8.03114 11.0644 7.97301 11.0084 7.91487C10.915 7.81729 10.8133 7.73631 10.6846 7.65326C10.7323 7.60551 10.7717 7.56191 10.8091 7.51415L15.8094 6.82483L15.9194 6.8186C15.9796 7.24839 16.0066 7.68025 15.9983 8.10796" fill="#344054"/>
<path d="M15.5793 5.44182L15.4817 5.47919L11.1353 6.97203C11.21 6.79555 11.2619 6.61283 11.2826 6.4322L15.1641 4.67568L15.2617 4.63831C15.3841 4.90199 15.4921 5.16983 15.5793 5.4439" fill="#344054"/>
<path d="M14.3566 3.14345L14.2756 3.20573L11.241 5.54153C11.2161 5.40035 11.1787 5.26539 11.1289 5.13874L13.8646 2.71158L13.9456 2.64307C14.093 2.80086 14.2279 2.96904 14.3566 3.14345Z" fill="#344054"/>
<path d="M12.4841 1.37037L12.4219 1.46172L10.5247 4.26883C10.4521 4.20239 10.3732 4.14426 10.2881 4.08612L12.0254 1.20427L12.0856 1.11914C12.2185 1.19804 12.3554 1.28317 12.4841 1.37037Z" fill="#344054"/>
<path d="M10.205 0.311457L10.1759 0.41527L9.23981 3.67085C9.15263 3.65217 9.0613 3.63971 8.96582 3.62933L9.75872 0.305228L9.78986 0.203491C9.93516 0.234635 10.0721 0.269932 10.205 0.309381" fill="#344054"/>
<path d="M4.68201 7.91066V8.5543L0.192348 9.1751L0.0864889 9.18133C0.0221433 8.75154 -0.00691602 8.31968 0.00138664 7.89197L0.101018 7.88574L4.67993 7.91066H4.68201Z" fill="#344054"/>
<path d="M3.87476 1.14195C2.24951 2.11779 1.09752 3.58571 0.489351 5.24257C0.414628 5.45019 0.344055 5.66405 0.288012 5.8779C0.194607 6.21634 0.124035 6.56515 0.0742188 6.91811L0.182153 6.94303L4.69049 7.61574V7.46417H4.68219V3.59609H8.40593C8.44952 3.59609 8.49103 3.59609 8.53255 3.59817L9.01203 0.170254L9.03071 0.070593C8.682 0.0249152 8.32913 0 7.97627 0C6.5752 0 5.15752 0.367499 3.87268 1.14195" fill="#344054"/>
<path d="M4.68224 9.09412V9.58827L0.836031 11.3282L0.738475 11.3656C0.616011 11.1019 0.508076 10.834 0.420898 10.56L0.518455 10.5226L4.68224 9.09204V9.09412Z" fill="#344054"/>
<path d="M4.6822 10.5204V11.0353L2.13744 13.288L2.05649 13.3566C1.91119 13.1988 1.7742 13.0306 1.64551 12.8562L1.72646 12.7897L4.68428 10.5162L4.6822 10.5204Z" fill="#344054"/>
<path d="M5.41681 12.4058L3.97422 14.7976L3.91403 14.8827C3.77911 14.8038 3.64627 14.7187 3.51758 14.6315L3.57777 14.5402L5.02036 12.4058H5.41681Z" fill="#344054"/>
<path d="M7.01932 12.4058L6.2368 15.6925L6.20774 15.7963C6.06867 15.7652 5.92752 15.7299 5.79053 15.6904L5.82166 15.5866L6.73911 12.4058H7.01932Z" fill="#344054"/>
</svg>
