<svg width="360" height="824" viewBox="0 0 360 824" fill="none" xmlns="http://www.w3.org/2000/svg">
<path fill-rule="evenodd" clip-rule="evenodd" d="M278.28 174.11L333.818 5.2737C332.177 4.75301 330.537 4.21586 328.894 3.67785L328.894 3.67771L328.892 3.6771C325.336 2.51256 321.768 1.34402 318.162 0.329669C317.667 0.247269 317.255 0.164799 316.761 0H386.059L376.995 20.9296C372.546 19.0757 367.957 17.3607 363.369 15.6459L363.368 15.6455C361.838 15.0739 360.309 14.5023 358.785 13.9256L295.09 180.043C289.569 177.901 283.966 175.923 278.28 174.11ZM443.572 55.1254L477.686 0H441.924L419.182 41.0351C427.504 45.4847 435.579 50.2638 443.572 55.1254ZM592.388 124.921L558.769 153.514C552.177 145.768 545.337 138.188 538.251 130.937L592.388 79.684V124.921ZM493.26 421.722L488.975 421.887L378.477 437.213C380.29 448.172 381.196 459.461 381.196 470.997L492.024 472.233L494.578 472.068C494.578 481.05 494.166 490.031 493.424 499.095L592.386 508.241V439.85L495.484 445.371C494.99 437.46 494.248 429.632 493.26 421.722ZM532.153 823.997H524.16H524.078C549.951 799.278 572.693 772.003 592.304 742.752V751.486C574.506 777.689 554.318 801.997 532.153 823.997ZM592.386 751.487V823.999H532.234C554.4 801.998 574.588 777.773 592.386 751.487ZM-192.964 790.131L-231.609 822.762V823.998H-182.829L-171.952 813.78C-179.286 806.117 -186.207 798.207 -192.964 790.131ZM464.585 337.673L468.376 336.19C471.754 343.606 474.638 351.104 477.357 358.685L592.387 317.238V366.925L484.773 394.034C482.631 385.547 479.994 377.225 477.11 368.985L476.698 369.15L370.403 405.323C367.931 398.154 365.047 391.15 361.833 384.393L464.585 337.673ZM573.025 171.722L433.11 277.029C428.331 270.519 423.305 264.01 417.784 258.077L414.57 260.714L329.451 336.274C333.159 340.394 336.785 344.679 340.163 349.129L429.484 280.655C434.676 287.411 439.62 294.415 444.234 301.584L592.224 206.166V187.378C587.774 180.704 583.242 174.03 578.298 167.767L572.86 171.558L573.025 171.722ZM495.979 81.659L491.611 86.9327V87.0149L378.065 228.001C373.038 223.963 367.847 220.008 362.656 216.3L468.787 68.9694L472.907 64.1079C480.57 69.5462 488.563 75.5614 495.979 81.659ZM-126.55 445.291C-126.22 441.254 -125.808 437.299 -125.231 433.261L-231.609 422.549V492.507L-127.456 487.315C-128.033 473.472 -127.786 459.382 -126.55 445.209V445.291ZM-231.609 567.488L-120.617 540.296H-120.535C-117.898 552.327 -114.602 564.11 -110.647 575.563L-231.609 618.246V567.488ZM-223.948 726.849L-229.386 730.474C-222.382 741.763 -214.884 752.97 -206.891 763.434L-201.535 759.644L-66.729 659.199C-72.1674 651.865 -77.2762 644.285 -82.0553 636.457L-223.948 726.849ZM-103.478 823.919L-14.7335 714.327H-14.6511C-9.54233 718.53 -4.26875 722.65 1.16962 726.605L-69.2821 823.919H-103.478ZM71.456 765.002L48.7961 824H71.1264L88.5127 771.1C82.7447 769.204 77.0592 767.227 71.456 765.002ZM361.504 208.061L359.032 211.604V211.686L294.76 306.281C291.382 303.974 287.921 301.749 284.46 299.689L343.788 201.469L346.095 198.173C351.204 201.222 356.56 204.6 361.504 208.061ZM240.046 280.243L240.053 280.221L240.128 280.243H240.046ZM240.053 280.221L272.347 170.157L273.5 166.12C268.392 164.472 263.036 163.071 257.432 161.835L256.196 165.708L229.252 277.359C232.852 278.178 236.452 279.158 240.053 280.221ZM-11.685 461.274C-11.9322 463.746 -11.9322 466.3 -11.9322 468.855C-12.0146 477.836 -11.4378 486.735 -10.3666 495.387L-117.404 509.478L-121.524 509.725C-123.831 492.915 -124.82 476.106 -124.325 459.379L-120.453 459.214L-11.685 461.274ZM-108.917 563.615C-105.621 574.327 -101.501 584.792 -96.8044 595.092L-93.014 593.609L4.62958 549.937C1.5808 542.933 -1.13838 535.682 -3.44557 528.266L-105.209 562.132L-109 563.615H-108.917ZM-58.9004 651.124L25.8888 586.934V587.017C29.2672 591.713 32.8928 596.163 36.6832 600.53L-43.0797 670.652L-46.2933 673.289C-51.814 667.109 -57.17 660.435 -62.114 653.678L-58.9004 651.124ZM12.5408 719.76L10.2337 723.303C15.1776 726.764 20.2864 730.143 25.4776 733.274L27.8672 729.978L82.7454 639.503C79.1198 637.278 75.5766 634.971 72.1982 632.581L12.5408 719.843V719.76ZM98.0714 765.248L99.3074 761.211V761.128L129.054 659.942C132.679 661.013 136.387 662.002 140.095 662.908L115.375 765.495L114.222 769.533C113.473 769.346 112.72 769.159 111.962 768.971C107.384 767.834 102.667 766.662 98.0714 765.248Z" fill="url(#paint0_linear_227_597)"/>
<defs>
<linearGradient id="paint0_linear_227_597" x1="-154.612" y1="222.604" x2="515.588" y2="601.623" gradientUnits="userSpaceOnUse">
<stop stop-color="#3064E9"/>
<stop offset="1" stop-color="#0FC97E"/>
</linearGradient>
</defs>
</svg>
