<svg width="1680" height="1070" viewBox="0 0 1680 1070" fill="none" xmlns="http://www.w3.org/2000/svg">
<path fill-rule="evenodd" clip-rule="evenodd" d="M1039.29 50.1484L1152.57 -294.243C1149.22 -295.305 1145.88 -296.401 1142.53 -297.499L1142.52 -297.5C1135.27 -299.875 1127.99 -302.259 1120.64 -304.327C1119.63 -304.496 1118.79 -304.664 1117.78 -305H1259.13L1240.64 -262.308C1231.57 -266.09 1222.21 -269.588 1212.85 -273.086L1212.85 -273.087L1212.85 -273.087C1209.73 -274.253 1206.61 -275.419 1203.5 -276.595L1073.58 62.25C1062.31 57.88 1050.89 53.8461 1039.29 50.1484ZM1376.45 -192.556L1446.03 -305H1373.09L1326.7 -221.297C1343.67 -212.221 1360.14 -202.472 1376.45 -192.556ZM1680 -50.1869L1611.42 8.13608C1597.98 -7.66324 1584.03 -23.1262 1569.57 -37.9171L1680 -142.461V-50.1869ZM1477.8 555.223L1469.06 555.559L1243.67 586.821C1247.37 609.176 1249.21 632.203 1249.21 655.733L1475.28 658.254L1480.49 657.919C1480.49 676.239 1479.65 694.559 1478.14 713.048L1680 731.704V592.2L1482.34 603.461C1481.33 587.326 1479.82 571.358 1477.8 555.223ZM1557.13 1375.78H1540.83H1540.66C1593.44 1325.36 1639.83 1269.72 1679.83 1210.05V1227.87C1643.53 1281.32 1602.35 1330.9 1557.13 1375.78ZM1680 1227.87V1375.78H1557.3C1602.51 1330.91 1643.69 1281.49 1680 1227.87ZM78.0501 1306.7L-0.77832 1373.26V1375.78H98.7237L120.91 1354.94C105.951 1339.31 91.8325 1323.17 78.0501 1306.7ZM1419.31 383.781L1427.04 380.755C1433.93 395.882 1439.82 411.177 1445.36 426.64L1680 342.097V443.448L1460.49 498.746C1456.12 481.434 1450.74 464.458 1444.86 447.65L1444.02 447.986L1227.2 521.772C1222.16 507.15 1216.27 492.863 1209.72 479.08L1419.31 383.781ZM1640.5 45.2771L1355.11 260.08C1345.36 246.802 1335.11 233.524 1323.84 221.423L1317.29 226.801L1143.67 380.928C1151.23 389.332 1158.62 398.072 1165.52 407.148L1347.71 267.476C1358.3 281.258 1368.39 295.545 1377.8 310.168L1679.67 115.534V77.2122C1670.59 63.5979 1661.34 49.9836 1651.26 37.2097L1640.17 44.9411L1640.5 45.2771ZM1483.35 -138.433L1474.44 -127.676V-127.508L1242.83 160.073C1232.57 151.837 1221.98 143.769 1211.4 136.206L1427.88 -164.317L1436.28 -174.234C1451.92 -163.14 1468.22 -150.871 1483.35 -138.433ZM213.521 603.3C214.193 595.064 215.033 586.996 216.21 578.761L-0.77832 556.91V699.608L211.672 689.019C210.495 660.782 211 632.041 213.521 603.132V603.3ZM-0.77832 852.555L225.622 797.089H225.79C231.169 821.628 237.892 845.664 245.96 869.026L-0.77832 956.09V852.555ZM14.8505 1177.62L3.75732 1185.01C18.0439 1208.04 33.339 1230.9 49.6425 1252.24L60.5676 1244.51L335.543 1039.63C324.45 1024.67 314.029 1009.2 304.28 993.236L14.8505 1177.62ZM260.583 1375.62L441.602 1152.08H441.771C452.191 1160.65 462.948 1169.05 474.041 1177.12L330.335 1375.62H260.583ZM617.41 1255.44L571.189 1375.78H616.738L652.202 1267.88C640.437 1264.01 628.839 1259.98 617.41 1255.44ZM1209.05 119.4L1204 126.627V126.795L1072.9 319.748C1066.01 315.042 1058.95 310.504 1051.89 306.302L1172.91 105.954L1177.62 99.2305C1188.04 105.449 1198.96 112.34 1209.05 119.4ZM961.298 266.637L961.312 266.591L961.467 266.637H961.298ZM961.312 266.591L1027.18 42.0846L1029.54 33.849C1019.12 30.4874 1008.19 27.6303 996.763 25.1091L994.242 33.0088L939.28 260.754C946.624 262.423 953.968 264.424 961.312 266.591ZM447.82 635.901C447.316 640.943 447.316 646.153 447.316 651.363C447.148 669.684 448.325 687.836 450.51 705.484L232.177 734.226L223.773 734.73C219.067 700.442 217.05 666.154 218.058 632.035L225.958 631.699L447.82 635.901ZM249.488 844.655C256.211 866.505 264.615 887.851 274.195 908.86L281.927 905.835L481.099 816.754C474.88 802.468 469.333 787.677 464.627 772.55L257.051 841.629L249.32 844.655H249.488ZM351.512 1023.15L524.464 892.221V892.389C531.355 901.969 538.75 911.045 546.482 919.953L383.782 1062.99L377.227 1068.37C365.966 1055.76 355.041 1042.15 344.957 1028.36L351.512 1023.15ZM497.236 1163.16L492.53 1170.38C502.614 1177.44 513.035 1184.34 523.624 1190.72L528.498 1184L640.438 999.45C633.043 994.912 625.815 990.206 618.924 985.332L497.236 1163.33V1163.16ZM671.7 1255.94L674.221 1247.71V1247.54L734.897 1041.14C742.293 1043.33 749.856 1045.34 757.42 1047.19L706.997 1256.45L704.643 1264.68C703.117 1264.3 701.579 1263.92 700.035 1263.54C690.696 1261.22 681.074 1258.83 671.7 1255.94Z" fill="url(#paint0_linear_101_114)"/>
<defs>
<linearGradient id="paint0_linear_101_114" x1="156.279" y1="149.064" x2="1523.35" y2="922.184" gradientUnits="userSpaceOnUse">
<stop stop-color="#3064E9"/>
<stop offset="1" stop-color="#0FC97E"/>
</linearGradient>
</defs>
</svg>
