<svg width="20" height="20" viewBox="0 0 20 20" fill="none" xmlns="http://www.w3.org/2000/svg">
<path d="M14.4096 10.9136C14.5185 11.2874 14.5782 11.6715 14.5782 12.0737C14.5782 13.1664 14.2202 13.9995 13.5067 14.6042C12.788 15.2011 11.789 15.5074 10.5047 15.5074H9.36312L8.77674 19.7923L8.74561 19.9168C10.9069 20.1971 13.159 19.7767 15.1542 18.5725C17.1858 17.3501 18.631 15.5126 19.3834 13.4415C19.5001 13.1197 19.6039 12.7901 19.6869 12.4553C19.7855 12.0893 19.8556 11.7286 19.9023 11.3522L14.2228 10.501C14.298 10.6333 14.3603 10.7709 14.407 10.9136" fill="#F2F4F7"/>
<path d="M19.9955 10.1377L19.8709 10.1455L13.9605 10.1144C13.8982 10.0391 13.8308 9.96644 13.7607 9.89377C13.644 9.77179 13.5168 9.67057 13.356 9.56676C13.4156 9.50707 13.4649 9.45257 13.5116 9.39287L19.762 8.53122L19.8995 8.52344C19.9747 9.06067 20.0085 9.6005 19.9981 10.1351" fill="#F2F4F7"/>
<path d="M19.4739 6.80224L19.352 6.84896L13.9189 8.715C14.0124 8.4944 14.0772 8.26601 14.1032 8.04022L18.955 5.84457L19.077 5.79785C19.23 6.12746 19.365 6.46226 19.4739 6.80484" fill="#F2F4F7"/>
<path d="M17.9459 3.92919L17.8448 4.00705L14.0515 6.92679C14.0203 6.75031 13.9736 6.58161 13.9114 6.4233L17.331 3.38936L17.4322 3.30371C17.6164 3.50096 17.7851 3.71118 17.9459 3.92919Z" fill="#F2F4F7"/>
<path d="M15.6057 1.71296L15.5278 1.82716L13.1564 5.33604C13.0656 5.25299 12.967 5.18032 12.8606 5.10765L15.0323 1.50533L15.1075 1.39893C15.2736 1.49755 15.4448 1.60396 15.6057 1.71296Z" fill="#F2F4F7"/>
<path d="M12.7567 0.389352L12.7204 0.519118L11.5502 4.5886C11.4413 4.56524 11.3271 4.54967 11.2078 4.53669L12.1989 0.381566L12.2378 0.254395C12.4194 0.293324 12.5907 0.337445 12.7567 0.386756" fill="#F2F4F7"/>
<path d="M5.85251 9.88857V10.6931L0.240435 11.4691L0.108111 11.4769C0.0276791 10.9397 -0.00864502 10.3998 0.0017333 9.86521L0.126273 9.85742L5.84992 9.88857H5.85251Z" fill="#F2F4F7"/>
<path d="M4.8432 1.42743C2.81165 2.64724 1.37166 4.48214 0.611445 6.55321C0.51804 6.81274 0.429825 7.08006 0.359771 7.34738C0.243015 7.77042 0.154799 8.20644 0.0925293 8.64764L0.227447 8.67878L5.86287 9.51967V9.33021H5.8525V4.49511H10.5072C10.5617 4.49511 10.6135 4.49511 10.6654 4.49771L11.2648 0.212817L11.2881 0.0882412C10.8523 0.031144 10.4112 0 9.97009 0C8.21875 0 6.44665 0.459374 4.84061 1.42743" fill="#F2F4F7"/>
<path d="M5.85255 11.3678V11.9855L1.04479 14.1604L0.92285 14.2071C0.769769 13.8775 0.634851 13.5427 0.525879 13.2001L0.647824 13.1534L5.85255 11.3652V11.3678Z" fill="#F2F4F7"/>
<path d="M5.85251 13.1507V13.7943L2.67156 16.6103L2.57037 16.6959C2.38875 16.4987 2.2175 16.2885 2.05664 16.0704L2.15783 15.9874L5.8551 13.1455L5.85251 13.1507Z" fill="#F2F4F7"/>
<path d="M6.77101 15.5073L4.96778 18.4971L4.89254 18.6036C4.72389 18.5049 4.55784 18.3985 4.39697 18.2895L4.47222 18.1753L6.27545 15.5073H6.77101Z" fill="#F2F4F7"/>
<path d="M8.77403 15.5073L7.79587 19.6157L7.75955 19.7455C7.58571 19.7066 7.40928 19.6624 7.23804 19.6131L7.27696 19.4834L8.42376 15.5073H8.77403Z" fill="#F2F4F7"/>
</svg>
