<svg width="139" height="40" viewBox="0 0 139 40" fill="none" xmlns="http://www.w3.org/2000/svg">
<path d="M29.1641 21.8267C29.3846 22.5742 29.5054 23.3424 29.5054 24.1469C29.5054 26.3322 28.7807 27.9984 27.3366 29.2078C25.882 30.4017 23.8602 31.0142 21.2608 31.0142H18.9503L17.7635 39.584L17.7004 39.8331C22.0748 40.3937 26.633 39.5528 30.6712 37.1444C34.783 34.6996 37.708 31.0246 39.2309 26.8824C39.4672 26.2388 39.6773 25.5796 39.8453 24.91C40.0448 24.1781 40.1866 23.4566 40.2812 22.7039L28.786 21.0014C28.9383 21.2661 29.0643 21.5412 29.1588 21.8267" fill="white"/>
<path d="M40.4701 20.2747L40.2181 20.2903L28.2555 20.228C28.1295 20.0775 27.993 19.9322 27.8512 19.7868C27.6149 19.5429 27.3576 19.3404 27.032 19.1328C27.1528 19.0134 27.2525 18.9044 27.3471 18.785L39.9975 17.0617L40.2758 17.0461C40.4281 18.1206 40.4964 19.2003 40.4754 20.2695" fill="white"/>
<path d="M39.4147 13.6047L39.1679 13.6982L28.1716 17.4303C28.3607 16.989 28.492 16.5323 28.5445 16.0807L38.3645 11.6894L38.6113 11.5959C38.9211 12.2552 39.1942 12.9248 39.4147 13.6099" fill="white"/>
<path d="M36.3218 7.85868L36.117 8.0144L28.4396 13.8539C28.3766 13.5009 28.282 13.1635 28.156 12.8469L35.0773 6.77902L35.2821 6.60773C35.6549 7.00222 35.9962 7.42266 36.3218 7.85868Z" fill="white"/>
<path d="M31.585 3.42586L31.4274 3.65425L26.6277 10.672C26.4439 10.5059 26.2444 10.3606 26.0291 10.2152L30.4244 3.01061L30.5767 2.79779C30.9128 2.99504 31.2594 3.20785 31.585 3.42586Z" fill="white"/>
<path d="M25.8191 0.778643L25.7456 1.03818L23.3773 9.17714C23.1567 9.13042 22.9256 9.09928 22.6841 9.07332L24.6901 0.763071L24.7689 0.508728C25.1365 0.586588 25.483 0.674829 25.8191 0.773452" fill="white"/>
<path d="M11.8453 19.7764V21.3855L0.48663 22.9375L0.218813 22.9531C0.0560214 21.8786 -0.0174972 20.799 0.00350812 19.7297L0.255572 19.7141L11.84 19.7764H11.8453Z" fill="white"/>
<path d="M9.80244 2.85486C5.69065 5.29448 2.77616 8.96427 1.23752 13.1064C1.04847 13.6255 0.869929 14.1601 0.728143 14.6948C0.491833 15.5408 0.313288 16.4129 0.187256 17.2953L0.460325 17.3576L11.8662 19.0394V18.6604H11.8452V8.99023H21.2661C21.3764 8.99023 21.4814 8.99023 21.5864 8.99542L22.7995 0.425634L22.8467 0.176483C21.9645 0.062288 21.0718 0 20.1791 0C16.6344 0 13.0478 0.918747 9.79719 2.85486" fill="white"/>
<path d="M11.8452 22.7351V23.9705L2.11447 28.3203L1.86766 28.4137C1.55783 27.7545 1.28476 27.0849 1.06421 26.3997L1.31102 26.3063L11.8452 22.7299V22.7351Z" fill="white"/>
<path d="M11.8453 26.3011V27.5884L5.40716 33.2202L5.20236 33.3915C4.83477 32.997 4.48818 32.5766 4.1626 32.1406L4.3674 31.9745L11.8505 26.2907L11.8453 26.3011Z" fill="white"/>
<path d="M13.7041 31.0142L10.0545 36.9938L9.90217 37.2066C9.56084 37.0094 9.22475 36.7966 8.89917 36.5786L9.05146 36.3502L12.7011 31.0142H13.7041Z" fill="white"/>
<path d="M17.7582 31.0142L15.7785 39.231L15.7049 39.4905C15.3531 39.4127 14.996 39.3244 14.6494 39.2258L14.7282 38.9663L17.0493 31.0142H17.7582Z" fill="white"/>
<path d="M47.1499 19.792V6.98145H52.4905C53.1994 6.98145 53.8138 7.1164 54.3442 7.3967C54.8694 7.6718 55.2842 8.05072 55.5783 8.53345C55.8724 9.01619 56.0246 9.57159 56.0246 10.1997C56.0246 10.8641 55.8514 11.4558 55.5048 11.9697C55.1582 12.4835 54.6698 12.8573 54.0449 13.0857V12.795C54.5543 12.9559 55.0006 13.1999 55.3787 13.5269C55.7568 13.8539 56.0457 14.2432 56.2505 14.6896C56.45 15.136 56.555 15.6187 56.555 16.1326C56.555 17.2434 56.1979 18.131 55.4838 18.8006C54.7696 19.465 53.7771 19.7972 52.501 19.7972H47.1604L47.1499 19.792ZM48.2789 12.5147H52.3855C53.1364 12.5147 53.7456 12.3019 54.2024 11.8814C54.6593 11.4558 54.8904 10.9004 54.8904 10.2152C54.8904 9.53006 54.6646 8.99023 54.2182 8.59574C53.7718 8.20644 53.1574 8.0092 52.3802 8.0092H48.2737V12.5147H48.2789ZM48.2789 18.7591H52.417C53.3307 18.7591 54.0607 18.5255 54.6015 18.0531C55.1424 17.586 55.4102 16.9475 55.4102 16.143C55.4102 15.3384 55.1477 14.7207 54.6173 14.2432C54.0869 13.7656 53.3832 13.5269 52.501 13.5269H48.2737V18.7539L48.2789 18.7591Z" fill="white"/>
<path d="M59.228 19.7972V6.98145H67.4044V8.01439H60.3571V12.8469H67.0578V13.8798H60.3571V18.7642H67.4044V19.7972H59.228Z" fill="white"/>
<path d="M68.4492 19.7972L73.0966 6.98663H75.1132L79.7606 19.7972H77.9331L76.8724 16.7866H71.3374L70.2767 19.7972H68.4492ZM71.8783 15.2398H76.3315L73.8581 8.20644H74.3465L71.8783 15.2398Z" fill="white"/>
<path d="M81.3938 19.7972V6.98145H82.9587L87.8162 13.8072H87.0127L91.8334 6.98145H93.3983V19.7972H91.6759V9.11481L92.285 9.30167L87.4643 16.0132H87.3278L82.5596 9.30167L83.1005 9.11481V19.7972H81.3938Z" fill="white"/>
<path d="M95.625 19.7972V18.0272L99.1382 14.3989C99.8366 13.6774 100.372 13.1012 100.75 12.6704C101.128 12.2396 101.391 11.871 101.543 11.5596C101.696 11.2482 101.769 10.9367 101.769 10.6149C101.769 10.0751 101.596 9.65462 101.254 9.34318C100.913 9.03174 100.472 8.88121 99.9416 8.88121C99.4112 8.88121 98.9019 9.03693 98.4975 9.35356C98.0932 9.67019 97.7938 10.1322 97.61 10.7395L95.541 10.101C95.6828 9.42623 95.9664 8.83968 96.3917 8.33619C96.8223 7.83789 97.3475 7.45378 97.9671 7.18386C98.5868 6.91395 99.2432 6.77899 99.9416 6.77899C100.777 6.77899 101.512 6.92952 102.142 7.22539C102.772 7.52126 103.266 7.9417 103.623 8.48153C103.975 9.02136 104.153 9.64943 104.153 10.3709C104.153 10.8277 104.064 11.2845 103.891 11.7309C103.717 12.1773 103.455 12.6341 103.108 13.096C102.762 13.5632 102.31 14.0771 101.748 14.6532L98.7023 17.8195H104.321V19.7972H95.6198H95.625Z" fill="white"/>
<path d="M111.374 19.9996C110.339 19.9996 109.436 19.7245 108.659 19.1743C107.882 18.6241 107.272 17.8507 106.842 16.8541C106.406 15.8575 106.191 14.6999 106.191 13.3815C106.191 12.0631 106.406 10.8952 106.837 9.90896C107.267 8.92274 107.871 8.15452 108.648 7.60431C109.425 7.0541 110.329 6.77899 111.363 6.77899C112.398 6.77899 113.332 7.0541 114.104 7.60431C114.876 8.15452 115.48 8.92274 115.921 9.91934C116.362 10.9108 116.583 12.0683 116.583 13.3867C116.583 14.7051 116.368 15.8627 115.932 16.8541C115.496 17.8455 114.892 18.6189 114.115 19.1743C113.338 19.7297 112.429 20.01 111.384 20.01M111.4 17.8766C111.993 17.8766 112.498 17.695 112.912 17.3368C113.327 16.9735 113.653 16.4596 113.879 15.79C114.104 15.1204 114.22 14.321 114.22 13.3919C114.22 12.4628 114.104 11.6634 113.879 10.9938C113.653 10.3242 113.327 9.81034 112.902 9.45737C112.477 9.10441 111.967 8.92274 111.363 8.92274C110.759 8.92274 110.287 9.09922 109.867 9.45737C109.452 9.81553 109.126 10.3242 108.9 10.9938C108.675 11.6634 108.559 12.4628 108.559 13.3919C108.559 14.321 108.675 15.1048 108.9 15.7744C109.126 16.444 109.452 16.9631 109.877 17.3316C110.302 17.7001 110.807 17.8818 111.4 17.8818" fill="white"/>
<path d="M118.263 19.7971V17.7312L121.745 14.1912C122.428 13.4905 122.948 12.9402 123.305 12.5302C123.657 12.1253 123.903 11.7827 124.035 11.5076C124.166 11.2325 124.234 10.9626 124.234 10.6979C124.234 10.2307 124.082 9.857 123.772 9.58708C123.462 9.31717 123.079 9.18221 122.617 9.18221C122.155 9.18221 121.719 9.31717 121.346 9.58708C120.973 9.857 120.705 10.2671 120.527 10.8173L118.179 10.0594C118.321 9.39503 118.61 8.81367 119.051 8.32056C119.492 7.82745 120.028 7.44853 120.653 7.17861C121.278 6.9087 121.934 6.77374 122.617 6.77374C123.473 6.77374 124.229 6.92427 124.88 7.22014C125.531 7.51601 126.035 7.93645 126.393 8.47628C126.75 9.01611 126.933 9.64418 126.933 10.3657C126.933 10.8225 126.849 11.274 126.692 11.7153C126.529 12.1565 126.282 12.6029 125.951 13.0544C125.621 13.506 125.195 13.9991 124.67 14.5234L121.693 17.5496H127.054V19.7867H118.269L118.263 19.7971Z" fill="white"/>
<path d="M134.028 19.7972V17.0461H128.288V14.809L133.855 6.98145H136.727V14.809H138.728V17.0461H136.727V19.7972H134.028ZM130.252 15.7744L129.748 14.8142H134.028V9.05252L134.705 9.26015L130.252 15.7796V15.7744Z" fill="white"/>
<path d="M46.5408 30.3343V27.5209H47.7433C47.9271 27.5209 48.0899 27.5521 48.2264 27.6196C48.363 27.6818 48.468 27.7753 48.5363 27.8947C48.6098 28.014 48.6466 28.1542 48.6466 28.3203C48.6466 28.4501 48.6098 28.5746 48.5415 28.6836C48.4733 28.7978 48.3577 28.8861 48.2054 28.9587V28.72C48.3472 28.7719 48.4575 28.8394 48.5363 28.9172C48.6203 28.9951 48.6728 29.0833 48.7096 29.1768C48.7463 29.2702 48.7568 29.374 48.7568 29.4778C48.7568 29.7477 48.6676 29.9605 48.489 30.1111C48.3105 30.2616 48.0584 30.3395 47.7433 30.3395H46.5408V30.3343ZM47.0659 28.611H47.7748C47.8799 28.611 47.9691 28.5798 48.0321 28.5175C48.0952 28.4553 48.1267 28.3774 48.1267 28.2788C48.1267 28.1801 48.0952 28.1023 48.0321 28.0452C47.9691 27.9881 47.8851 27.957 47.7748 27.957H47.0659V28.611ZM47.0659 29.8827H47.8011C47.9376 29.8827 48.0426 29.8464 48.1267 29.7737C48.2054 29.701 48.2475 29.6024 48.2475 29.4778C48.2475 29.3532 48.2054 29.2546 48.1267 29.1768C48.0479 29.0989 47.9376 29.0626 47.8011 29.0626H47.0659V29.8827Z" fill="white"/>
<path d="M52.7689 30.3343L53.7509 27.5209H54.4231L55.4051 30.3343H54.8379L54.6331 29.7322H53.5304L53.3256 30.3343H52.7637H52.7689ZM53.6879 29.2754H54.4861L54.0135 27.8791H54.1605L53.6879 29.2754Z" fill="white"/>
<path d="M59.543 30.3343V27.5209H59.9526L61.5175 29.6076L61.3127 29.6491V27.5209H61.8325V30.3343H61.4177L59.8791 28.2321L60.0681 28.1905V30.3343H59.543Z" fill="white"/>
<path d="M66.2017 30.3343V27.5209H67.1364C67.4357 27.5209 67.6983 27.5832 67.9241 27.7026C68.1499 27.822 68.3179 27.9881 68.444 28.2009C68.5648 28.4137 68.6278 28.6577 68.6278 28.9328C68.6278 29.2079 68.5648 29.4519 68.444 29.6647C68.3232 29.8775 68.1499 30.0436 67.9241 30.163C67.6983 30.2824 67.441 30.3447 67.1364 30.3447H66.2017V30.3343ZM66.7268 29.8827H67.1469C67.3412 29.8827 67.5092 29.8412 67.651 29.7633C67.7928 29.6854 67.9031 29.5712 67.9819 29.4311C68.0606 29.291 68.1026 29.1197 68.1026 28.9276C68.1026 28.7355 68.0606 28.5643 67.9819 28.4241C67.9031 28.284 67.7928 28.1698 67.651 28.0919C67.5092 28.014 67.3412 27.9725 67.1469 27.9725H66.7268V29.8827Z" fill="white"/>
<path d="M73.9528 30.381C73.7322 30.381 73.5379 30.3343 73.3699 30.246C73.2018 30.1578 73.0653 30.028 72.9708 29.8723C72.8762 29.7166 72.8237 29.5349 72.8237 29.3325V27.5209H73.3436V29.3065C73.3436 29.4207 73.3699 29.5245 73.4224 29.618C73.4749 29.7114 73.5484 29.7841 73.6377 29.836C73.727 29.8879 73.832 29.9138 73.9528 29.9138C74.0736 29.9138 74.1786 29.8879 74.2678 29.836C74.3571 29.7841 74.4306 29.7114 74.4832 29.618C74.5357 29.5245 74.5619 29.4207 74.5619 29.3065V27.5209H75.0818V29.3325C75.0818 29.5349 75.0345 29.7166 74.9348 29.8723C74.835 30.028 74.7037 30.1578 74.5357 30.246C74.3676 30.3343 74.1733 30.381 73.9528 30.381Z" fill="white"/>
<path d="M79.4194 30.3343V27.5209H79.829L81.3939 29.6076L81.1891 29.6491V27.5209H81.709V30.3343H81.2942L79.7555 28.2321L79.9446 28.1905V30.3343H79.4194Z" fill="white"/>
<path d="M87.4328 30.381C87.228 30.381 87.0389 30.3446 86.8656 30.2719C86.6923 30.1993 86.54 30.0955 86.4087 29.9657C86.2775 29.8359 86.1777 29.6802 86.1042 29.5037C86.0307 29.3272 85.9939 29.1352 85.9939 28.9276C85.9939 28.7199 86.0307 28.5227 86.0989 28.3462C86.1724 28.1697 86.2722 28.014 86.3983 27.8842C86.5243 27.7545 86.6766 27.6559 86.8499 27.5832C87.0232 27.5105 87.2122 27.4742 87.417 27.4742C87.6218 27.4742 87.8056 27.5105 87.9631 27.578C88.1259 27.6455 88.2625 27.7337 88.3727 27.8479C88.483 27.9621 88.5671 28.0815 88.6143 28.2164L88.1522 28.4345C88.0997 28.2891 88.0052 28.1749 87.8791 28.0815C87.7478 27.9881 87.5956 27.9413 87.417 27.9413C87.2385 27.9413 87.0809 27.9829 86.9444 28.0659C86.8079 28.149 86.7028 28.2632 86.6293 28.4085C86.5558 28.5538 86.519 28.7251 86.519 28.9224C86.519 29.1196 86.5558 29.2909 86.6346 29.4363C86.7133 29.5816 86.8184 29.701 86.9601 29.784C87.1019 29.8671 87.2542 29.9086 87.4328 29.9086C87.5745 29.9086 87.7058 29.8826 87.8319 29.8256C87.9526 29.7685 88.0524 29.6906 88.1259 29.5816C88.1995 29.4778 88.2362 29.3532 88.2362 29.2079V28.9899L88.4725 29.1923H87.417V28.7563H88.7561V29.0418C88.7561 29.2598 88.7193 29.4518 88.6458 29.6179C88.5723 29.784 88.4725 29.9242 88.3465 30.0384C88.2205 30.1526 88.0787 30.2356 87.9211 30.2927C87.7636 30.3498 87.6008 30.3758 87.4328 30.3758V30.381Z" fill="white"/>
<path d="M97.2214 30.3343V27.5209H99.1172V27.9725H97.7466V28.694H99.0436V29.1508H97.7466V29.8775H99.1172V30.3291H97.2214V30.3343Z" fill="white"/>
<path d="M103.318 30.3343V27.5209H103.843V29.8827H105.062V30.3343H103.318Z" fill="white"/>
<path d="M109.221 30.3343V27.5209H111.116V27.9725H109.746V28.694H111.043V29.1508H109.746V29.8775H111.116V30.3291H109.221V30.3343Z" fill="white"/>
<path d="M116.079 30.3343L115.086 27.5209H115.654L116.436 29.8515H116.326L117.103 27.5209H117.67L116.678 30.3343H116.079Z" fill="white"/>
<path d="M121.404 30.3343L122.386 27.5209H123.058L124.04 30.3343H123.473L123.268 29.7322H122.165L121.96 30.3343H121.398H121.404ZM122.323 29.2754H123.121L122.648 27.8791H122.795L122.323 29.2754Z" fill="white"/>
<path d="M128.493 30.3343V27.9725H127.753V27.5209H129.743V27.9725H129.018V30.3343H128.493Z" fill="white"/>
<path d="M133.881 30.3343V27.5209H135.777V27.9725H134.406V28.694H135.703V29.1508H134.406V29.8775H135.777V30.3291H133.881V30.3343Z" fill="white"/>
<path d="M46.5408 34.8709V32.0576H47.0396L48.1057 33.4902H47.8694L48.9144 32.0576H49.4132V34.8709H48.8881V32.6389L49.0929 32.6856L48.0111 34.1131H47.9481L46.8926 32.6856L47.0659 32.6389V34.8709H46.5408Z" fill="white"/>
<path d="M53.7771 34.8709V32.0576H55.6728V32.5091H54.3022V33.2306H55.5993V33.6874H54.3022V34.4141H55.6728V34.8657H53.7771V34.8709Z" fill="white"/>
<path d="M59.874 34.8709V32.0576H61.7698V32.5091H60.3992V33.2306H61.6962V33.6874H60.3992V34.4141H61.7698V34.8657H59.874V34.8709Z" fill="white"/>
<path d="M66.4802 34.8709V32.5091H65.7397V32.0576H67.73V32.5091H67.0053V34.8709H66.4802Z" fill="white"/>
<path d="M72.9655 34.9124C72.7449 34.9124 72.5506 34.8656 72.3826 34.7774C72.2145 34.6892 72.078 34.5594 71.9835 34.4037C71.8889 34.248 71.8364 34.0663 71.8364 33.8638V32.0523H72.3563V33.8379C72.3563 33.9521 72.3826 34.0559 72.4351 34.1493C72.4876 34.2428 72.5611 34.3154 72.6504 34.3673C72.7397 34.4192 72.8447 34.4452 72.9655 34.4452C73.0862 34.4452 73.1913 34.4192 73.2805 34.3673C73.3698 34.3154 73.4433 34.2428 73.4958 34.1493C73.5484 34.0559 73.5746 33.9521 73.5746 33.8379V32.0523H74.0945V33.8638C74.0945 34.0663 74.0472 34.248 73.9475 34.4037C73.8477 34.5594 73.7164 34.6892 73.5484 34.7774C73.3803 34.8656 73.186 34.9124 72.9655 34.9124Z" fill="white"/>
<path d="M78.4373 34.8709V32.0576H79.5033C79.6976 32.0576 79.8709 32.0939 80.0179 32.1614C80.1649 32.2288 80.2857 32.3327 80.3697 32.4624C80.4538 32.5922 80.4958 32.7583 80.4958 32.9504C80.4958 33.1424 80.4538 33.2981 80.3697 33.4279C80.2857 33.5577 80.1702 33.6615 80.0179 33.729C79.8656 33.7964 79.6976 33.8328 79.5033 33.8328H78.9624V34.8709H78.4373ZM78.9624 33.376H79.5138C79.6031 33.376 79.6871 33.3552 79.7553 33.3189C79.8236 33.2826 79.8761 33.2306 79.9181 33.1684C79.9601 33.1061 79.9759 33.0282 79.9759 32.94C79.9759 32.8517 79.9549 32.7739 79.9181 32.7116C79.8814 32.6493 79.8236 32.5974 79.7553 32.5611C79.6871 32.5247 79.6083 32.504 79.5138 32.504H78.9624V33.3708V33.376Z" fill="white"/>
<path d="M108.748 34.8709V32.0576H110.644V32.5091H109.273V33.2306H110.57V33.6874H109.273V34.4141H110.644V34.8657H108.748V34.8709Z" fill="white"/>
<path d="M115.606 34.8709L114.614 32.0576H115.181L115.963 34.3882H115.853L116.63 32.0576H117.197L116.205 34.8709H115.606Z" fill="white"/>
<path d="M121.335 34.8709V32.0576H123.231V32.5091H121.861V33.2306H123.158V33.6874H121.861V34.4141H123.231V34.8657H121.335V34.8709Z" fill="white"/>
<path d="M127.432 34.8709V32.0576H127.842L129.407 34.1442L129.202 34.1857V32.0576H129.722V34.8709H129.307L127.768 32.7687L127.957 32.7272V34.8709H127.432Z" fill="white"/>
<path d="M134.595 34.8709V32.5091H133.855V32.0576H135.845V32.5091H135.12V34.8709H134.595Z" fill="white"/>
<path d="M105.912 33.5057H84.4922V33.9054H105.912V33.5057Z" fill="white"/>
</svg>
