<svg width="96" height="49" viewBox="0 0 96 49" fill="none" xmlns="http://www.w3.org/2000/svg">
<path d="M3.37427 28.2803H6.04055V41.3539H3.37427V28.2803Z" fill="#013B63"/>
<path d="M7.58688 36.8745C7.58512 35.9355 7.86197 35.017 8.38239 34.2353C8.90282 33.4537 9.64342 32.844 10.5105 32.4834C11.3775 32.1229 12.332 32.0276 13.2533 32.2097C14.1745 32.3919 15.021 32.8432 15.6855 33.5066C16.3502 34.1699 16.8031 35.0156 16.9869 35.9364C17.1708 36.8573 17.0774 37.812 16.7184 38.6798C16.3594 39.5474 15.7511 40.2892 14.9704 40.8111C14.1898 41.333 13.2719 41.6115 12.3329 41.6115C11.7083 41.6187 11.0887 41.5011 10.5103 41.2656C9.93187 41.0303 9.40623 40.6817 8.96422 40.2405C8.52221 39.7994 8.1727 39.2744 7.93619 38.6963C7.69968 38.1184 7.58093 37.499 7.58688 36.8745ZM14.3947 36.8745C14.3843 36.4691 14.2545 36.0758 14.0216 35.7439C13.7888 35.4118 13.4632 35.1559 13.0856 35.008C12.708 34.86 12.2952 34.8268 11.8989 34.9122C11.5025 34.9977 11.1401 35.1982 10.857 35.4885C10.574 35.7789 10.3829 36.1463 10.3075 36.5448C10.2322 36.9432 10.276 37.3551 10.4335 37.7287C10.5911 38.1024 10.8552 38.4213 11.193 38.6456C11.5309 38.8699 11.9273 38.9896 12.3329 38.9897C12.6103 38.9975 12.8863 38.9477 13.1435 38.8434C13.4007 38.7392 13.6336 38.5827 13.8274 38.384C14.0211 38.1852 14.1716 37.9485 14.2692 37.6887C14.3669 37.4288 14.4096 37.1517 14.3947 36.8745Z" fill="#013B63"/>
<path d="M27.7972 32.3952V40.9095C27.7972 43.9224 25.442 45.1934 23.0601 45.1934C22.2226 45.2557 21.384 45.0863 20.6362 44.7038C19.8885 44.3213 19.2604 43.7404 18.8208 43.0248L21.1138 41.7006C21.2957 42.0672 21.5836 42.371 21.9402 42.5722C22.2967 42.7734 22.7054 42.863 23.1135 42.8292C23.3819 42.874 23.6571 42.8565 23.9178 42.778C24.1786 42.6996 24.4177 42.5624 24.617 42.3769C24.8161 42.1914 24.9701 41.9626 25.0669 41.7082C25.1638 41.4538 25.2009 41.1806 25.1754 40.9095V40.083C24.8619 40.4687 24.4619 40.775 24.008 40.9773C23.5541 41.1795 23.0588 41.272 22.5625 41.2473C21.3556 41.2473 20.1982 40.7679 19.3448 39.9145C18.4914 39.0611 18.012 37.9037 18.012 36.6968C18.012 35.4899 18.4914 34.3326 19.3448 33.4792C20.1982 32.6258 21.3556 32.1464 22.5625 32.1464C23.0586 32.1237 23.553 32.2172 24.0067 32.4192C24.4603 32.6214 24.8605 32.9266 25.1754 33.3106V32.4219L27.7972 32.3952ZM25.1754 36.6968C25.1931 36.2646 25.0811 35.8369 24.8539 35.4688C24.6266 35.1007 24.2945 34.8089 23.9001 34.6311C23.5058 34.4532 23.0672 34.3974 22.6409 34.4708C22.2145 34.5441 21.8199 34.7434 21.5077 35.0428C21.1954 35.3423 20.9799 35.7282 20.8888 36.1511C20.7976 36.574 20.835 37.0145 20.9962 37.4159C21.1575 37.8175 21.435 38.1615 21.7933 38.4039C22.1516 38.6464 22.5742 38.7761 23.0068 38.7765C23.2892 38.7965 23.5726 38.7571 23.8388 38.6608C24.105 38.5646 24.3481 38.4137 24.5525 38.2177C24.7567 38.0218 24.9177 37.7852 25.025 37.5232C25.1323 37.2613 25.1835 36.9798 25.1754 36.6968Z" fill="#013B63"/>
<path d="M29.3349 36.8745C29.3331 35.9355 29.61 35.017 30.1304 34.2353C30.6509 33.4537 31.3915 32.844 32.2585 32.4834C33.1255 32.1229 34.0801 32.0276 35.0013 32.2097C35.9225 32.3919 36.769 32.8432 37.4337 33.5066C38.0982 34.1699 38.5511 35.0156 38.735 35.9364C38.9188 36.8573 38.8254 37.812 38.4664 38.6798C38.1075 39.5474 37.4992 40.2892 36.7186 40.8111C35.9379 41.333 35.0199 41.6115 34.0809 41.6115C33.4564 41.6187 32.8368 41.5011 32.2583 41.2656C31.6799 41.0303 31.1542 40.6817 30.7123 40.2405C30.2703 39.7994 29.9207 39.2744 29.6842 38.6963C29.4477 38.1184 29.3289 37.499 29.3349 36.8745ZM36.1428 36.8745C36.1323 36.4691 36.0025 36.0758 35.7697 35.7439C35.5368 35.4118 35.2113 35.1559 34.8337 35.008C34.4562 34.86 34.0434 34.8268 33.6469 34.9122C33.2505 34.9977 32.8882 35.1982 32.6051 35.4885C32.322 35.7789 32.1309 36.1463 32.0555 36.5448C31.9802 36.9432 32.0241 37.3551 32.1815 37.7287C32.3391 38.1024 32.6033 38.4213 32.9411 38.6456C33.2789 38.8699 33.6754 38.9896 34.0809 38.9897C34.3569 38.995 34.6309 38.9434 34.8861 38.838C35.1411 38.7326 35.3718 38.5758 35.5636 38.3773C35.7555 38.1789 35.9043 37.9429 36.0009 37.6844C36.0975 37.4258 36.1397 37.1501 36.1251 36.8745H36.1428Z" fill="#013B63"/>
<path d="M40.0623 29.9955C40.0623 29.6756 40.1571 29.3628 40.3348 29.0968C40.5126 28.8308 40.7652 28.6235 41.0607 28.5011C41.3564 28.3786 41.6815 28.3466 41.9953 28.409C42.3091 28.4714 42.5973 28.6255 42.8236 28.8516C43.0498 29.0779 43.2038 29.3661 43.2662 29.6799C43.3287 29.9937 43.2966 30.3189 43.1743 30.6145C43.0518 30.91 42.8445 31.1627 42.5785 31.3404C42.3124 31.5181 41.9998 31.613 41.6798 31.613C41.2515 31.6107 40.8415 31.4395 40.5386 31.1366C40.2357 30.8339 40.0646 30.4238 40.0623 29.9955ZM40.3377 32.3951H43.004V41.3538H40.3377V32.3951Z" fill="#013B63"/>
<path d="M54.6287 36.8747C54.661 37.4669 54.5759 38.0596 54.3782 38.6188C54.1805 39.1779 53.8742 39.6925 53.4769 40.1327C53.0795 40.573 52.599 40.9304 52.063 41.1842C51.527 41.4381 50.9461 41.5834 50.3538 41.6118C49.8564 41.6356 49.3599 41.5502 48.8993 41.3613C48.4386 41.1724 48.0249 40.8847 47.6875 40.5186V44.9624H45.0212V32.3953H47.6875V33.2397C48.0249 32.8735 48.4386 32.5859 48.8993 32.397C49.3599 32.2081 49.8564 32.1227 50.3538 32.1465C50.9454 32.1749 51.5255 32.3199 52.0609 32.5732C52.5963 32.8266 53.0764 33.1831 53.4736 33.6224C53.8708 34.0618 54.1773 34.5752 54.3755 35.1333C54.5738 35.6914 54.6598 36.2832 54.6287 36.8747ZM51.9624 36.8747C51.9519 36.4575 51.8192 36.0526 51.5808 35.7101C51.3424 35.3677 51.0088 35.1026 50.6213 34.9479C50.2339 34.7931 49.8094 34.7553 49.4007 34.8394C48.992 34.9233 48.6168 35.1254 48.3218 35.4205C48.0267 35.7155 47.8247 36.0906 47.7407 36.4993C47.6567 36.9081 47.6945 37.3325 47.8492 37.7199C48.004 38.1074 48.269 38.4411 48.6115 38.6794C48.954 38.9178 49.3589 39.0505 49.7761 39.061C50.0672 39.0796 50.3588 39.0355 50.6316 38.932C50.9043 38.8284 51.1516 38.6676 51.3571 38.4605C51.5624 38.2534 51.7212 38.0047 51.8226 37.7312C51.9238 37.4577 51.9655 37.1657 51.9446 36.8747H51.9624Z" fill="#013B63"/>
<path d="M62.93 38.6698C62.93 40.7317 61.1525 41.6115 59.1972 41.6115C58.4161 41.6807 57.6322 41.5145 56.9463 41.1343C56.2606 40.7542 55.7042 40.1775 55.3489 39.4785L57.6774 38.1543C57.7719 38.4776 57.9743 38.7588 58.2507 38.9512C58.5272 39.1436 58.8612 39.2356 59.1972 39.2119C59.846 39.2119 60.1659 39.0075 60.1659 38.652C60.1659 37.6654 55.7221 38.1899 55.7221 35.097C55.7221 33.1417 57.3752 32.1551 59.2772 32.1551C59.979 32.1339 60.6738 32.3005 61.2895 32.6381C61.9052 32.9756 62.4194 33.4717 62.7789 34.0748L60.4415 35.3014C60.3382 35.0667 60.169 34.8669 59.9544 34.7265C59.7398 34.5861 59.4892 34.511 59.2327 34.5103C58.7706 34.5103 58.4862 34.6881 58.4862 35.017C58.5218 36.039 62.93 35.3547 62.93 38.6698Z" fill="#013B63"/>
<path d="M72.7416 32.395V41.3537H70.0753V40.5183C69.7651 40.8895 69.3715 41.182 68.9266 41.3721C68.4818 41.5621 67.9983 41.6441 67.5156 41.6115C65.7381 41.6115 64.165 40.3227 64.165 37.8965V32.395H66.8313V37.5054C66.8079 37.7232 66.8333 37.9434 66.9056 38.1502C66.9778 38.357 67.0952 38.545 67.2493 38.7008C67.4033 38.8566 67.5901 38.976 67.796 39.0505C68.0019 39.1252 68.222 39.1529 68.44 39.1319C69.4176 39.1319 70.102 38.563 70.102 37.2922V32.395H72.7416Z" fill="#013B63"/>
<path d="M88.1527 35.8614V41.3539H85.4863V36.0925C85.4863 35.2038 85.0508 34.6171 84.1977 34.6171C83.3445 34.6171 82.7934 35.2482 82.7934 36.3058V41.3539H80.1272V36.0925C80.1272 35.2038 79.7005 34.6171 78.8384 34.6171C77.9764 34.6171 77.4431 35.2482 77.4431 36.3058V41.3539H74.7769V32.3953H77.4431V33.2218C77.7218 32.8568 78.0873 32.5672 78.5064 32.3794C78.9255 32.1915 79.3849 32.1114 79.8427 32.1464C80.3026 32.124 80.7605 32.2213 81.1716 32.4283C81.5828 32.6355 81.9333 32.9456 82.1891 33.3285C82.4865 32.9282 82.8806 32.6098 83.3344 32.4031C83.7882 32.1964 84.2871 32.108 84.7842 32.1464C86.8106 32.1464 88.1527 33.6217 88.1527 35.8614Z" fill="#013B63"/>
<path d="M90.4281 32.342C91.5276 32.342 92.4189 31.4506 92.4189 30.3511C92.4189 29.2516 91.5276 28.3604 90.4281 28.3604C89.3286 28.3604 88.4373 29.2516 88.4373 30.3511C88.4373 31.4506 89.3286 32.342 90.4281 32.342Z" fill="#013B63"/>
<path d="M33.5475 21.4992C38.6965 21.4992 42.8705 17.3251 42.8705 12.1761C42.8705 7.02711 38.6965 2.85303 33.5475 2.85303C28.3985 2.85303 24.2244 7.02711 24.2244 12.1761C24.2244 17.3251 28.3985 21.4992 33.5475 21.4992Z" fill="#013B63"/>
<path d="M54.3888 21.4992C59.5378 21.4992 63.7118 17.3251 63.7118 12.1761C63.7118 7.02711 59.5378 2.85303 54.3888 2.85303C49.2398 2.85303 45.0657 7.02711 45.0657 12.1761C45.0657 17.3251 49.2398 21.4992 54.3888 21.4992Z" fill="#013B63"/>
<path d="M22.0293 2.85303H3.39209V21.4902H22.0293V2.85303Z" fill="#013B63"/>
</svg>
